# Vertex Start
v 2399.999756 399.999939 -2399.999268
v -0.000053 399.999908 -2399.999512
v -0.000053 399.999939 -0.000000
v -0.000053 399.999939 -0.000000
v 2399.999756 399.999939 0.000122
v 2399.999756 399.999939 -2399.999268
v 4799.999023 399.999939 -2399.999268
v 2399.999756 399.999939 -2399.999268
v 2399.999756 399.999939 0.000122
v 2399.999756 399.999939 0.000122
v 4799.999512 399.999939 0.000122
v 4799.999023 399.999939 -2399.999268
v 2399.999512 399.999939 -4799.999023
v -0.000053 399.999908 -4799.999023
v -0.000053 399.999908 -2399.999512
v -0.000053 399.999908 -2399.999512
v 2399.999756 399.999939 -2399.999268
v 2399.999512 399.999939 -4799.999023
v 4799.999512 399.999908 -4799.999023
v 2399.999512 399.999939 -4799.999023
v 2399.999756 399.999939 -2399.999268
v 2399.999756 399.999939 -2399.999268
v 4799.999023 399.999939 -2399.999268
v 4799.999512 399.999908 -4799.999023
v 2399.999512 399.999939 -7199.999023
v -0.000053 399.999908 -7199.999023
v 4799.999023 399.999939 -7199.999023
v 2399.999512 399.999939 -7199.999023
v 2399.999512 399.999939 -4799.999023
v 2399.999512 399.999939 -4799.999023
v 4799.999512 399.999908 -4799.999023
v 4799.999023 399.999939 -7199.999023
v 2399.999512 399.999908 -9599.998047
v -0.000053 399.999908 -9599.998047
v -0.000053 399.999908 -7199.999023
v -0.000053 399.999908 -7199.999023
v 2399.999512 399.999939 -7199.999023
v 2399.999512 399.999908 -9599.998047
v 4799.999023 399.999908 -9599.998047
v 2399.999512 399.999908 -9599.998047
v 2399.999512 399.999939 -7199.999023
v 2399.999512 399.999939 -7199.999023
v 4799.999023 399.999939 -7199.999023
v 4799.999023 399.999908 -9599.998047
v 7199.999512 399.999939 -2399.999268
v 4799.999512 399.999939 0.000122
v 4799.999512 399.999939 0.000122
v 7199.999512 399.999939 0.000122
v 7199.999512 399.999939 -2399.999268
v 7199.999512 399.999908 -4799.999023
v 4799.999512 399.999908 -4799.999023
v 4799.999023 399.999939 -2399.999268
v 7199.999512 399.999939 -2399.999268
v 7199.999512 399.999908 -4799.999023
v 7199.999023 399.999939 -7199.999023
v 4799.999023 399.999939 -7199.999023
v 4799.999512 399.999908 -4799.999023
v 7199.999512 399.999908 -4799.999023
v 7199.999023 399.999908 -9599.998047
v 4799.999023 399.999939 -7199.999023
v 7199.999023 399.999939 -7199.999023
v 7199.999023 399.999908 -9599.998047
v 9599.998047 399.999939 -2399.999268
v 7199.999512 399.999939 0.000122
v 9599.998047 399.999939 0.000244
v 9599.998047 399.999939 -2399.999268
v 9599.998047 399.999939 -4799.998535
v 7199.999512 399.999908 -4799.999023
v 7199.999512 399.999939 -2399.999268
v 9599.998047 399.999939 -4799.998535
v 9599.998047 399.999939 -7199.998535
v 7199.999023 399.999939 -7199.999023
v 7199.999512 399.999908 -4799.999023
v 7199.999512 399.999908 -4799.999023
v 9599.998047 399.999939 -4799.998535
v 9599.998047 399.999939 -7199.998535
v 9599.998047 399.999939 -9599.998047
v 7199.999023 399.999908 -9599.998047
v 7199.999023 399.999939 -7199.999023
v 7199.999023 399.999939 -7199.999023
v 9599.998047 399.999939 -7199.998535
v 9599.998047 399.999939 -9599.998047
v 14399.998047 1199.999756 -3399.999268
v 12799.998047 1199.999756 -3399.999268
v 12799.998047 1199.999756 -1799.999634
v 12799.998047 1199.999756 -1799.999634
v 14399.998047 1199.999756 -1799.999634
v 14399.998047 1199.999756 -3399.999268
v 12399.998047 1199.999756 -6149.999023
v 10799.998047 1199.999756 -6149.999023
v 10799.998047 1199.999756 -4549.999023
v 10799.998047 1199.999756 -4549.999023
v 12399.998047 1199.999756 -4549.999023
v 12399.998047 1199.999756 -6149.999023
v 12399.998047 1199.999756 -4999.999023
v 13199.998047 1199.999756 -4999.999023
v 13199.998047 1199.999756 -5799.998535
v 13199.998047 1199.999756 -5799.998535
v 12399.998047 1199.999756 -5799.999023
v 12399.998047 1199.999756 -4999.999023
v 13199.998047 1199.999756 -4199.998535
v 13199.998047 1199.999756 -3399.999268
v 13999.998047 1199.999756 -3399.999756
v 13999.998047 1199.999756 -4199.999512
v 13199.998047 1199.999756 -4999.999023
v 13999.998047 1199.999756 -4999.999512
v 13999.998047 1199.999756 -5799.999023
v 11199.999023 799.999878 -1999.999878
v 11199.999023 799.999878 -3199.999268
v 9599.998047 399.999939 -3199.999268
v 9599.998047 399.999939 -1999.999634
v 12799.998047 1199.999756 -2000.000122
v 12799.998047 1199.999756 -3199.999512
v 11199.999023 799.999878 -3199.999268
v 11199.999023 799.999878 -1999.999878
v 9999.998047 799.999878 -4749.999512
v 9999.998047 799.999878 -5949.998535
v 9199.998047 399.999939 -5949.998535
v 9199.998047 399.999939 -4749.999023
v 10799.998047 1199.999756 -4749.999512
v 10799.998047 1199.999756 -5949.999023
v 9999.998047 799.999878 -5949.998535
v 9999.998047 799.999878 -4749.999512
# Pos End Count 123
vn -0.000000 1.000000 -0.000000
vn -0.000000 1.000000 -0.000000
vn -0.000000 1.000000 -0.000000
vn 0.000000 1.000000 -0.000000
vn 0.000000 1.000000 -0.000000
vn 0.000000 1.000000 -0.000000
vn 0.000000 1.000000 -0.000000
vn 0.000000 1.000000 -0.000000
vn 0.000000 1.000000 -0.000000
vn 0.000000 1.000000 -0.000000
vn 0.000000 1.000000 -0.000000
vn 0.000000 1.000000 -0.000000
vn -0.000000 1.000000 -0.000000
vn -0.000000 1.000000 -0.000000
vn -0.000000 1.000000 -0.000000
vn -0.000000 1.000000 0.000000
vn -0.000000 1.000000 0.000000
vn -0.000000 1.000000 0.000000
vn 0.000000 1.000000 -0.000000
vn 0.000000 1.000000 -0.000000
vn 0.000000 1.000000 -0.000000
vn 0.000000 1.000000 -0.000000
vn 0.000000 1.000000 -0.000000
vn 0.000000 1.000000 -0.000000
vn -0.000000 1.000000 -0.000000
vn -0.000000 1.000000 -0.000000
vn 0.000000 1.000000 -0.000000
vn 0.000000 1.000000 -0.000000
vn 0.000000 1.000000 -0.000000
vn 0.000000 1.000000 0.000000
vn 0.000000 1.000000 0.000000
vn 0.000000 1.000000 0.000000
vn 0.000000 1.000000 -0.000000
vn 0.000000 1.000000 -0.000000
vn 0.000000 1.000000 -0.000000
vn -0.000000 1.000000 -0.000000
vn -0.000000 1.000000 -0.000000
vn -0.000000 1.000000 -0.000000
vn 0.000000 1.000000 -0.000000
vn 0.000000 1.000000 -0.000000
vn 0.000000 1.000000 -0.000000
vn 0.000000 1.000000 -0.000000
vn 0.000000 1.000000 -0.000000
vn 0.000000 1.000000 -0.000000
vn 0.000000 1.000000 -0.000000
vn 0.000000 1.000000 -0.000000
vn 0.000000 1.000000 -0.000000
vn 0.000000 1.000000 -0.000000
vn 0.000000 1.000000 -0.000000
vn 0.000000 1.000000 -0.000000
vn 0.000000 1.000000 -0.000000
vn 0.000000 1.000000 -0.000000
vn 0.000000 1.000000 -0.000000
vn 0.000000 1.000000 -0.000000
vn 0.000000 1.000000 0.000000
vn 0.000000 1.000000 0.000000
vn 0.000000 1.000000 0.000000
vn 0.000000 1.000000 0.000000
vn 0.000000 1.000000 -0.000000
vn 0.000000 1.000000 -0.000000
vn 0.000000 1.000000 -0.000000
vn 0.000000 1.000000 -0.000000
vn 0.000000 1.000000 -0.000000
vn 0.000000 1.000000 -0.000000
vn 0.000000 1.000000 -0.000000
vn 0.000000 1.000000 -0.000000
vn -0.000000 1.000000 -0.000000
vn -0.000000 1.000000 -0.000000
vn -0.000000 1.000000 -0.000000
vn 0.000000 1.000000 -0.000000
vn -0.000000 1.000000 0.000000
vn -0.000000 1.000000 0.000000
vn -0.000000 1.000000 0.000000
vn -0.000000 1.000000 -0.000000
vn -0.000000 1.000000 -0.000000
vn -0.000000 1.000000 -0.000000
vn -0.000000 1.000000 -0.000000
vn -0.000000 1.000000 -0.000000
vn -0.000000 1.000000 -0.000000
vn 0.000000 1.000000 -0.000000
vn 0.000000 1.000000 -0.000000
vn 0.000000 1.000000 -0.000000
vn 0.000000 1.000000 -0.000000
vn 0.000000 1.000000 -0.000000
vn 0.000000 1.000000 -0.000000
vn 0.000000 1.000000 -0.000000
vn 0.000000 1.000000 -0.000000
vn 0.000000 1.000000 -0.000000
vn 0.000000 1.000000 -0.000000
vn 0.000000 1.000000 -0.000000
vn 0.000000 1.000000 -0.000000
vn 0.000000 1.000000 -0.000000
vn 0.000000 1.000000 -0.000000
vn 0.000000 1.000000 -0.000000
vn 0.000000 1.000000 -0.000000
vn 0.000000 1.000000 -0.000000
vn 0.000000 1.000000 -0.000000
vn 0.000000 1.000000 -0.000000
vn 0.000000 1.000000 -0.000000
vn 0.000000 1.000000 -0.000000
vn 0.000000 1.000000 -0.000000
vn 0.000000 1.000000 -0.000000
vn 0.000000 1.000000 -0.000000
vn 0.000000 1.000000 -0.000000
vn 0.000000 1.000000 -0.000000
vn 0.000000 1.000000 -0.000000
vn 0.000000 1.000000 -0.000000
vn -0.242535 0.970143 -0.000000
vn -0.242535 0.970143 -0.000000
vn -0.242535 0.970143 -0.000000
vn -0.242535 0.970143 -0.000000
vn -0.242536 0.970142 -0.000000
vn -0.242536 0.970142 -0.000000
vn -0.242536 0.970142 -0.000000
vn -0.242536 0.970142 -0.000000
vn -0.447214 0.894427 -0.000000
vn -0.447214 0.894427 -0.000000
vn -0.447214 0.894427 -0.000000
vn -0.447214 0.894427 -0.000000
vn -0.447214 0.894427 -0.000000
vn -0.447214 0.894427 -0.000000
vn -0.447214 0.894427 -0.000000
vn -0.447214 0.894427 -0.000000
# Normal End Count 123
vt 0.000000 1.000000 0.0f
vt 0.000000 1.000000 0.0f
vt 0.000000 1.000000 0.0f
vt 0.000000 1.000000 0.0f
vt 0.000000 1.000000 0.0f
vt 0.000000 1.000000 0.0f
vt 0.000000 1.000000 0.0f
vt 0.000000 1.000000 0.0f
vt 0.000000 1.000000 0.0f
vt 0.000000 1.000000 0.0f
vt 0.000000 1.000000 0.0f
vt 0.000000 1.000000 0.0f
vt 0.000000 1.000000 0.0f
vt 0.000000 1.000000 0.0f
vt 0.000000 1.000000 0.0f
vt 0.000000 1.000000 0.0f
vt 0.000000 1.000000 0.0f
vt 0.000000 1.000000 0.0f
vt 0.000000 1.000000 0.0f
vt 0.000000 1.000000 0.0f
vt 0.000000 1.000000 0.0f
vt 0.000000 1.000000 0.0f
vt 0.000000 1.000000 0.0f
vt 0.000000 1.000000 0.0f
vt 0.000000 1.000000 0.0f
vt 0.000000 1.000000 0.0f
vt 0.000000 1.000000 0.0f
vt 0.000000 1.000000 0.0f
vt 0.000000 1.000000 0.0f
vt 0.000000 1.000000 0.0f
vt 0.000000 1.000000 0.0f
vt 0.000000 1.000000 0.0f
vt 0.000000 1.000000 0.0f
vt 0.000000 1.000000 0.0f
vt 0.000000 1.000000 0.0f
vt 0.000000 1.000000 0.0f
vt 0.000000 1.000000 0.0f
vt 0.000000 1.000000 0.0f
vt 0.000000 1.000000 0.0f
vt 0.000000 1.000000 0.0f
vt 0.000000 1.000000 0.0f
vt 0.000000 1.000000 0.0f
vt 0.000000 1.000000 0.0f
vt 0.000000 1.000000 0.0f
vt 0.000000 1.000000 0.0f
vt 0.000000 1.000000 0.0f
vt 0.000000 1.000000 0.0f
vt 0.000000 1.000000 0.0f
vt 0.000000 1.000000 0.0f
vt 0.000000 1.000000 0.0f
vt 0.000000 1.000000 0.0f
vt 0.000000 1.000000 0.0f
vt 0.000000 1.000000 0.0f
vt 0.000000 1.000000 0.0f
vt 0.000000 1.000000 0.0f
vt 0.000000 1.000000 0.0f
vt 0.000000 1.000000 0.0f
vt 0.000000 1.000000 0.0f
vt 0.000000 1.000000 0.0f
vt 0.000000 1.000000 0.0f
vt 0.000000 1.000000 0.0f
vt 0.000000 1.000000 0.0f
vt 0.000000 1.000000 0.0f
vt 0.000000 1.000000 0.0f
vt 0.000000 1.000000 0.0f
vt 0.000000 1.000000 0.0f
vt 0.000000 1.000000 0.0f
vt 0.000000 1.000000 0.0f
vt 0.000000 1.000000 0.0f
vt 0.000000 1.000000 0.0f
vt 0.000000 1.000000 0.0f
vt 0.000000 1.000000 0.0f
vt 0.000000 1.000000 0.0f
vt 0.000000 1.000000 0.0f
vt 0.000000 1.000000 0.0f
vt 0.000000 1.000000 0.0f
vt 0.000000 1.000000 0.0f
vt 0.000000 1.000000 0.0f
vt 0.000000 1.000000 0.0f
vt 0.000000 1.000000 0.0f
vt 0.000000 1.000000 0.0f
vt 0.000000 1.000000 0.0f
vt 0.000000 1.000000 0.0f
vt 0.000000 1.000000 0.0f
vt 0.000000 1.000000 0.0f
vt 0.000000 1.000000 0.0f
vt 0.000000 1.000000 0.0f
vt 0.000000 1.000000 0.0f
vt 0.000000 1.000000 0.0f
vt 0.000000 1.000000 0.0f
vt 0.000000 1.000000 0.0f
vt 0.000000 1.000000 0.0f
vt 0.000000 1.000000 0.0f
vt 0.000000 1.000000 0.0f
vt 0.000000 1.000000 0.0f
vt 0.000000 1.000000 0.0f
vt 0.000000 1.000000 0.0f
vt 0.000000 1.000000 0.0f
vt 0.000000 1.000000 0.0f
vt 0.000000 1.000000 0.0f
vt 0.000000 1.000000 0.0f
vt 0.000000 1.000000 0.0f
vt 0.000000 1.000000 0.0f
vt 0.000000 1.000000 0.0f
vt 0.000000 1.000000 0.0f
vt 0.000000 1.000000 0.0f
vt 0.000000 1.000000 0.0f
vt 0.000000 1.000000 0.0f
vt 0.000000 1.000000 0.0f
vt 0.000000 1.000000 0.0f
vt 0.000000 1.000000 0.0f
vt 0.000000 1.000000 0.0f
vt 0.000000 1.000000 0.0f
vt 0.000000 1.000000 0.0f
vt 0.000000 1.000000 0.0f
vt 0.000000 1.000000 0.0f
vt 0.000000 1.000000 0.0f
vt 0.000000 1.000000 0.0f
vt 0.000000 1.000000 0.0f
vt 0.000000 1.000000 0.0f
vt 0.000000 1.000000 0.0f
vt 0.000000 1.000000 0.0f
vt 0.000000 1.000000 0.0f
# UV0 End Count 123

g ²âÊÔ01
usemtl 0_-_Default
f 1/1/1 2/2/2 3/3/3
f 4/4/4 5/5/5 6/6/6
f 7/7/7 8/8/8 9/9/9
f 10/10/10 11/11/11 12/12/12
f 13/13/13 14/14/14 15/15/15
f 16/16/16 17/17/17 18/18/18
f 19/19/19 20/20/20 21/21/21
f 22/22/22 23/23/23 24/24/24
f 25/25/25 26/26/26 14/14/14
f 14/14/14 13/13/13 25/25/25
f 27/27/27 28/28/28 29/29/29
f 30/30/30 31/31/31 32/32/32
f 33/33/33 34/34/34 35/35/35
f 36/36/36 37/37/37 38/38/38
f 39/39/39 40/40/40 41/41/41
f 42/42/42 43/43/43 44/44/44
f 45/45/45 7/7/7 46/46/46
f 47/47/47 48/48/48 49/49/49
f 50/50/50 51/51/51 52/52/52
f 23/23/23 53/53/53 54/54/54
f 55/55/55 56/56/56 57/57/57
f 57/57/57 58/58/58 55/55/55
f 59/59/59 39/39/39 60/60/60
f 43/43/43 61/61/61 62/62/62
f 63/63/63 45/45/45 64/64/64
f 48/48/48 65/65/65 66/66/66
f 67/67/67 68/68/68 69/69/69
f 49/49/49 66/66/66 70/70/70
f 71/71/71 72/72/72 73/73/73
f 74/74/74 75/75/75 76/76/76
f 77/77/77 78/78/78 79/79/79
f 80/80/80 81/81/81 82/82/82
f 83/83/83 84/84/84 85/85/85
f 86/86/86 87/87/87 88/88/88
f 89/89/89 90/90/90 91/91/91
f 92/92/92 93/93/93 94/94/94
f 95/95/95 96/96/96 97/97/97
f 98/98/98 99/99/99 100/100/100
f 101/101/101 102/102/102 103/103/103
f 103/103/103 104/104/104 101/101/101
f 105/105/105 101/101/101 104/104/104
f 104/104/104 106/106/106 105/105/105
f 98/98/98 105/105/105 106/106/106
f 106/106/106 107/107/107 98/98/98
f 108/108/108 109/109/109 110/110/110
f 110/110/110 111/111/111 108/108/108
f 112/112/112 113/113/113 114/114/114
f 114/114/114 115/115/115 112/112/112
f 116/116/116 117/117/117 118/118/118
f 118/118/118 119/119/119 116/116/116
f 120/120/120 121/121/121 122/122/122
f 122/122/122 123/123/123 120/120/120
#NumFace 52 ²âÊÔ01 End
